<?xml version="1.0" encoding="UTF-8" standalone="no"?>
<!-- Created with Inkscape (http://www.inkscape.org/) -->

<svg
   xmlns:dc="http://purl.org/dc/elements/1.1/"
   xmlns:cc="http://creativecommons.org/ns#"
   xmlns:rdf="http://www.w3.org/1999/02/22-rdf-syntax-ns#"
   xmlns:svg="http://www.w3.org/2000/svg"
   xmlns="http://www.w3.org/2000/svg"
   xmlns:sodipodi="http://sodipodi.sourceforge.net/DTD/sodipodi-0.dtd"
   xmlns:inkscape="http://www.inkscape.org/namespaces/inkscape"
   id="svg2985"
   version="1.1"
   inkscape:version="0.48.5 r10040"
   width="1000"
   height="298.23184"
   xml:space="preserve"
   sodipodi:docname="A.svg"><metadata
     id="metadata2991"><rdf:RDF><cc:Work
         rdf:about=""><dc:format>image/svg+xml</dc:format><dc:type
           rdf:resource="http://purl.org/dc/dcmitype/StillImage" /><dc:title></dc:title></cc:Work></rdf:RDF></metadata><defs
     id="defs2989"><clipPath
       clipPathUnits="userSpaceOnUse"
       id="clipPath3003"><path
         d="M 0,0 612,0 612,792 0,792 0,0 z"
         id="path3005"
         inkscape:connector-curvature="0" /></clipPath><clipPath
       clipPathUnits="userSpaceOnUse"
       id="clipPath3013"><path
         d="M 0,792 612,792 612,0 0,0 0,792 z"
         id="path3015"
         inkscape:connector-curvature="0" /></clipPath><clipPath
       clipPathUnits="userSpaceOnUse"
       id="clipPath3021"><path
         d="m 131.084,649.157 0,108.906 143.176,-25.849 0,-83.057 -143.176,0 z m -81.308,0 0,84.868 40.983,7.164 0,-92.032 -40.983,0 z"
         id="path3023"
         inkscape:connector-curvature="0" /></clipPath><clipPath
       clipPathUnits="userSpaceOnUse"
       id="clipPath3035"><path
         d="m 350.436,740.489 0,-91.338 108.029,0 0,110.39 -108.029,-19.052 z"
         id="path3037"
         inkscape:connector-curvature="0" /></clipPath><clipPath
       clipPathUnits="userSpaceOnUse"
       id="clipPath3049"><path
         d="m 463.686,649.132 0,91.678 99.074,-17.612 0,-74.066 -99.074,0 z"
         id="path3051"
         inkscape:connector-curvature="0" /></clipPath><clipPath
       clipPathUnits="userSpaceOnUse"
       id="clipPath3067"><path
         d="M 0,0 612,0 612,792 0,792 0,0 z"
         id="path3069"
         inkscape:connector-curvature="0" /></clipPath><clipPath
       clipPathUnits="userSpaceOnUse"
       id="clipPath3083"><path
         d="M 0,0 612,0 612,792 0,792 0,0 z"
         id="path3085"
         inkscape:connector-curvature="0" /></clipPath><clipPath
       clipPathUnits="userSpaceOnUse"
       id="clipPath3107"><path
         d="m 279.887,708.059 0,-58.908 64.853,0 0,69.708 -64.853,-10.8 z"
         id="path3109"
         inkscape:connector-curvature="0" /></clipPath><clipPath
       clipPathUnits="userSpaceOnUse"
       id="clipPath3155"><path
         d="M 0,0 612,0 612,792 0,792 0,0 z"
         id="path3157"
         inkscape:connector-curvature="0" /></clipPath><clipPath
       clipPathUnits="userSpaceOnUse"
       id="clipPath3165"><path
         d="M 0,792 612,792 612,0 0,0 0,792 z"
         id="path3167"
         inkscape:connector-curvature="0" /></clipPath><clipPath
       clipPathUnits="userSpaceOnUse"
       id="clipPath3179"><path
         d="m 41.04,63.08 96.261,0 0,34.386 -96.261,0 0,-34.386 z"
         id="path3181"
         inkscape:connector-curvature="0" /></clipPath><clipPath
       clipPathUnits="userSpaceOnUse"
       id="clipPath3341"><path
         d="m 340.2,195.871 208.277,0 0,162.689 -208.277,0 0,-162.689 z"
         id="path3343"
         inkscape:connector-curvature="0" /></clipPath><clipPath
       clipPathUnits="userSpaceOnUse"
       id="clipPath3349"><path
         d="m 391.214,206.16 3.451,0 0,-8.281 -3.451,0 0,8.281 z"
         id="path3351"
         inkscape:connector-curvature="0" /></clipPath><clipPath
       clipPathUnits="userSpaceOnUse"
       id="clipPath3353"><path
         d="m 391.214,197.879 3.451,0 0,8.28 -3.451,0 0,-8.28 z"
         id="path3355"
         inkscape:connector-curvature="0" /></clipPath><clipPath
       clipPathUnits="userSpaceOnUse"
       id="clipPath3357"><path
         d="m 389.058,207.475 17.394,0 0,-10.576 -17.394,0 0,10.576 z"
         id="path3359"
         inkscape:connector-curvature="0" /></clipPath><clipPath
       clipPathUnits="userSpaceOnUse"
       id="clipPath3385"><path
         d="m 360.18,227.524 34.485,0 0,-8.28 -34.485,0 0,8.28 z"
         id="path3387"
         inkscape:connector-curvature="0" /></clipPath><clipPath
       clipPathUnits="userSpaceOnUse"
       id="clipPath3389"><path
         d="m 360.18,219.244 34.485,0 0,8.28 -34.485,0 0,-8.28 z"
         id="path3391"
         inkscape:connector-curvature="0" /></clipPath><clipPath
       clipPathUnits="userSpaceOnUse"
       id="clipPath3393"><path
         d="m 358.024,228.84 48.428,0 0,-10.576 -48.428,0 0,10.576 z"
         id="path3395"
         inkscape:connector-curvature="0" /></clipPath><clipPath
       clipPathUnits="userSpaceOnUse"
       id="clipPath3421"><path
         d="m 356.729,248.889 37.936,0 0,-8.281 -37.936,0 0,8.281 z"
         id="path3423"
         inkscape:connector-curvature="0" /></clipPath><clipPath
       clipPathUnits="userSpaceOnUse"
       id="clipPath3425"><path
         d="m 356.729,240.608 37.936,0 0,8.28 -37.936,0 0,-8.28 z"
         id="path3427"
         inkscape:connector-curvature="0" /></clipPath><clipPath
       clipPathUnits="userSpaceOnUse"
       id="clipPath3429"><path
         d="m 354.573,250.204 51.879,0 0,-10.576 -51.879,0 0,10.576 z"
         id="path3431"
         inkscape:connector-curvature="0" /></clipPath><clipPath
       clipPathUnits="userSpaceOnUse"
       id="clipPath3457"><path
         d="m 356.729,270.253 37.936,0 0,-8.28 -37.936,0 0,8.28 z"
         id="path3459"
         inkscape:connector-curvature="0" /></clipPath><clipPath
       clipPathUnits="userSpaceOnUse"
       id="clipPath3461"><path
         d="m 356.729,261.973 37.936,0 0,8.281 -37.936,0 0,-8.281 z"
         id="path3463"
         inkscape:connector-curvature="0" /></clipPath><clipPath
       clipPathUnits="userSpaceOnUse"
       id="clipPath3465"><path
         d="m 354.573,271.569 51.879,0 0,-10.576 -51.879,0 0,10.576 z"
         id="path3467"
         inkscape:connector-curvature="0" /></clipPath><clipPath
       clipPathUnits="userSpaceOnUse"
       id="clipPath3493"><path
         d="m 356.729,291.617 37.936,0 0,-8.28 -37.936,0 0,8.28 z"
         id="path3495"
         inkscape:connector-curvature="0" /></clipPath><clipPath
       clipPathUnits="userSpaceOnUse"
       id="clipPath3497"><path
         d="m 356.729,283.337 37.936,0 0,8.28 -37.936,0 0,-8.28 z"
         id="path3499"
         inkscape:connector-curvature="0" /></clipPath><clipPath
       clipPathUnits="userSpaceOnUse"
       id="clipPath3501"><path
         d="m 354.573,292.933 51.879,0 0,-10.575 -51.879,0 0,10.575 z"
         id="path3503"
         inkscape:connector-curvature="0" /></clipPath><clipPath
       clipPathUnits="userSpaceOnUse"
       id="clipPath3529"><path
         d="m 356.729,312.982 37.936,0 0,-8.28 -37.936,0 0,8.28 z"
         id="path3531"
         inkscape:connector-curvature="0" /></clipPath><clipPath
       clipPathUnits="userSpaceOnUse"
       id="clipPath3533"><path
         d="m 356.729,304.702 37.936,0 0,8.28 -37.936,0 0,-8.28 z"
         id="path3535"
         inkscape:connector-curvature="0" /></clipPath><clipPath
       clipPathUnits="userSpaceOnUse"
       id="clipPath3537"><path
         d="m 354.573,314.298 51.879,0 0,-10.576 -51.879,0 0,10.576 z"
         id="path3539"
         inkscape:connector-curvature="0" /></clipPath><clipPath
       clipPathUnits="userSpaceOnUse"
       id="clipPath3565"><path
         d="m 356.729,334.347 37.936,0 0,-8.281 -37.936,0 0,8.281 z"
         id="path3567"
         inkscape:connector-curvature="0" /></clipPath><clipPath
       clipPathUnits="userSpaceOnUse"
       id="clipPath3569"><path
         d="m 356.729,326.066 37.936,0 0,8.281 -37.936,0 0,-8.281 z"
         id="path3571"
         inkscape:connector-curvature="0" /></clipPath><clipPath
       clipPathUnits="userSpaceOnUse"
       id="clipPath3573"><path
         d="m 354.573,335.662 51.879,0 0,-10.576 -51.879,0 0,10.576 z"
         id="path3575"
         inkscape:connector-curvature="0" /></clipPath><clipPath
       clipPathUnits="userSpaceOnUse"
       id="clipPath3601"><path
         d="m 356.729,355.711 37.936,0 0,-8.28 -37.936,0 0,8.28 z"
         id="path3603"
         inkscape:connector-curvature="0" /></clipPath><clipPath
       clipPathUnits="userSpaceOnUse"
       id="clipPath3605"><path
         d="m 356.729,347.431 37.936,0 0,8.281 -37.936,0 0,-8.281 z"
         id="path3607"
         inkscape:connector-curvature="0" /></clipPath><clipPath
       clipPathUnits="userSpaceOnUse"
       id="clipPath3609"><path
         d="m 354.573,357.027 51.879,0 0,-10.576 -51.879,0 0,10.576 z"
         id="path3611"
         inkscape:connector-curvature="0" /></clipPath><clipPath
       clipPathUnits="userSpaceOnUse"
       id="clipPath3719"><path
         d="m 138.216,213.569 107.599,0 0,107.598 -107.599,0 0,-107.598 z"
         id="path3721"
         inkscape:connector-curvature="0" /></clipPath></defs><sodipodi:namedview
     pagecolor="#ffffff"
     bordercolor="#666666"
     borderopacity="1"
     objecttolerance="10"
     gridtolerance="10"
     guidetolerance="10"
     inkscape:pageopacity="0"
     inkscape:pageshadow="2"
     inkscape:window-width="1057"
     inkscape:window-height="1039"
     id="namedview2987"
     showgrid="false"
     fit-margin-left="0.5"
     fit-margin-bottom="0.5"
     fit-margin-top="0.5"
     fit-margin-right="0.5"
     inkscape:zoom="0.27720684"
     inkscape:cx="1137.4987"
     inkscape:cy="71.367039"
     inkscape:window-x="855"
     inkscape:window-y="-19"
     inkscape:window-maximized="0"
     inkscape:current-layer="g2993"><inkscape:grid
       type="xygrid"
       id="grid3844"
       empspacing="5"
       visible="true"
       enabled="true"
       snapvisiblegridlinesonly="true"
       originx="209.6559px"
       originy="-208.23918px" /></sodipodi:namedview><g
     id="g2993"
     inkscape:groupmode="layer"
     inkscape:label="2011SAMPLEREPORT"
     transform="matrix(1.25,0,0,-1.25,209.6559,506.47104)"><path
       d="m 83.765093,347.76308 c 0,12.72226 0,15.0119 -0.16892,17.63396 -0.15874,2.79574 -0.79985,4.08744 -3.50604,4.65798 -0.64517,0.17435 -2.03116,0.23812 -2.77606,0.23812 -0.30732,0 -0.6506,0.17436 -0.6506,0.49185 0,0.4966 0.41248,0.64585 1.33105,0.64585 3.64511,0 8.62602,-0.22388 9.37091,-0.22388 0.73472,0 5.63624,0.22388 8.06496,0.22388 0.92332,0 1.3358,-0.14925 1.3358,-0.64585 0,-0.31749 -0.33786,-0.49185 -0.66077,-0.49185 -0.57123,0 -1.08275,-0.061 -2.04067,-0.23812 -2.21027,-0.31817 -2.87579,-1.80254 -3.03928,-4.65798 -0.12891,-2.62206 -0.12891,-4.9117 -0.12891,-17.63396 l 0,-11.43667 c 0,-11.75486 2.59696,-16.83006 6.10775,-20.18683 4.017557,-3.76451 7.657917,-4.49923 12.315887,-4.49923 5.025,0 9.9116,2.37851 12.84167,5.89472 3.74957,4.65255 4.75769,11.59067 4.75769,20.00298 l 0,10.22503 c 0,12.72226 0,15.0119 -0.16892,17.63396 -0.17841,2.79574 -0.8392,4.08744 -3.52571,4.65798 -0.6506,0.17435 -2.06576,0.23812 -2.78624,0.23812 -0.32766,0 -0.66009,0.17436 -0.66009,0.49185 0,0.4966 0.42672,0.64585 1.31544,0.64585 3.67021,0 8.18436,-0.22388 8.65587,-0.22388 0.5814,0 4.4151,0.22388 6.85806,0.22388 0.91858,0 1.30594,-0.14925 1.30594,-0.64585 0,-0.31749 -0.32767,-0.49185 -0.63567,-0.49185 -0.55629,0 -1.06239,0 -2.05084,-0.23812 -2.21433,-0.41247 -2.85544,-1.80254 -3.00944,-4.65798 -0.17367,-2.62206 -0.17367,-4.9117 -0.17367,-17.63396 l 0,-8.76509 c 0,-8.80986 -0.97826,-18.59256 -7.52834,-24.40792 -5.8798,-5.2292 -11.98754,-6.05889 -16.81987,-6.05889 -2.76589,0 -11.009267,0.33785 -16.799517,5.82009 -4.04265,3.81947 -7.13146,9.54527 -7.13146,21.47311 l 0,11.9387"
       style="fill:#231f20;fill-opacity:1;fill-rule:nonzero;stroke:none"
       id="path4198"
       inkscape:connector-curvature="0" /><path
       d="m 146.90219,320.78738 c 0.19404,-6.66879 0.9837,-8.79427 3.19872,-9.46996 1.53932,-0.41247 3.35204,-0.48643 4.082,-0.48643 0.4023,0 0.65536,-0.16892 0.65536,-0.4966 0,-0.48641 -0.51152,-0.65533 -1.46538,-0.65533 -4.64305,0 -7.94556,0.25304 -8.64026,0.25304 -0.7449,0 -4.19666,-0.25304 -7.85668,-0.25304 -0.8392,0 -1.32563,0.0943 -1.32563,0.65533 0,0.32768 0.25848,0.4966 0.64585,0.4966 0.67978,0 2.13022,0.074 3.35678,0.48643 2.06577,0.56648 2.45789,2.94498 2.45789,10.36885 l 0.0943,46.82943 c 0,3.16344 0.20894,4.07658 0.87921,4.07658 0.65535,0 2.03592,-1.80729 2.86019,-2.63156 1.25168,-1.39074 13.42849,-14.52548 25.98725,-28.01774 8.05955,-8.66604 16.99355,-18.59256 19.56609,-21.29943 l -0.86905,41.46591 c -0.0997,5.33367 -0.63092,7.14096 -3.18853,7.78206 -1.45995,0.33785 -3.32219,0.40162 -3.99246,0.40162 -0.58614,0 -0.68045,0.26323 -0.68045,0.58615 0,0.4966 0.68045,0.55155 1.64855,0.55155 3.68513,0 7.59821,-0.22388 8.48693,-0.22388 0.91925,0 3.59559,0.22388 6.95779,0.22388 0.88872,0 1.44977,-0.0543 1.44977,-0.55155 0,-0.32292 -0.29307,-0.58615 -0.89889,-0.58615 -0.3772,0 -0.95318,0 -1.92195,-0.23812 -2.70617,-0.57054 -3.05896,-2.35884 -3.05896,-7.28004 l -0.13364,-47.86672 c 0,-5.38863 -0.16893,-5.79026 -0.74015,-5.79026 -0.64042,0 -1.65397,0.90298 -5.9646,5.23327 -0.89346,0.81952 -12.65782,12.80775 -21.3381,22.12914 -9.47538,10.2196 -18.70246,20.49957 -21.3096,23.44388 l 1.05764,-39.13691"
       style="fill:#231f20;fill-opacity:1;fill-rule:nonzero;stroke:none"
       id="path4200"
       inkscape:connector-curvature="0" /><path
       d="m 218.12461,333.38142 c 0,-7.84109 0,-14.29687 0.38263,-17.74863 0.24829,-2.33848 0.73947,-4.13696 3.19803,-4.48904 1.12209,-0.14384 2.92464,-0.31276 3.69938,-0.31276 0.45182,0 0.59566,-0.22861 0.59566,-0.4966 0,-0.40229 -0.36703,-0.65533 -1.251,-0.65533 -4.52908,0 -9.66872,0.25304 -10.0812,0.25304 -0.39688,0 -5.5372,-0.25304 -7.98016,-0.25304 -0.90366,0 -1.32088,0.16892 -1.32088,0.65533 0,0.26799 0.16893,0.4966 0.66552,0.4966 0.7103,0 1.7035,0.16892 2.42804,0.31276 1.63904,0.35208 2.06102,2.15056 2.35409,4.48904 0.45657,3.45176 0.45657,9.90754 0.45657,17.74863 l 0,14.38166 c 0,12.72226 0,15.0119 -0.18317,17.63396 -0.16417,2.79574 -0.98845,4.18581 -2.76656,4.56368 -0.9084,0.26865 -1.97147,0.33242 -2.53727,0.33242 -0.33784,0 -0.65602,0.17436 -0.65602,0.49185 0,0.4966 0.40773,0.64585 1.2917,0.64585 2.71094,0 7.85126,-0.22388 8.24814,-0.22388 0.41248,0 5.55212,0.22388 8.02493,0.22388 0.90432,0 1.31137,-0.14925 1.31137,-0.64585 0,-0.31749 -0.34734,-0.49185 -0.66077,-0.49185 -0.5658,0 -1.08749,-0.061 -2.03592,-0.23812 -2.22993,-0.41247 -2.87511,-1.80254 -3.02911,-4.65798 -0.154,-2.62206 -0.154,-4.9117 -0.154,-17.63396 l 0,-14.38166"
       style="fill:#231f20;fill-opacity:1;fill-rule:nonzero;stroke:none"
       id="path4202"
       inkscape:connector-curvature="0" /><path
       d="m 261.11016,319.66052 c 4.74211,10.95501 15.66793,39.45443 17.47997,45.31455 0.39755,1.23132 0.7008,2.37851 0.7008,3.13359 0,0.63567 -0.22388,1.47419 -1.03797,1.85206 -1.00337,0.33242 -2.20484,0.33242 -3.07932,0.33242 -0.51152,0 -0.91857,0.0746 -0.91857,0.49185 0,0.4966 0.48642,0.64585 1.79305,0.64585 3.24281,0 7.02156,-0.22388 8.01001,-0.22388 0.5061,0 3.9972,0.22388 6.35604,0.22388 0.87922,0 1.37582,-0.14925 1.37582,-0.55155 0,-0.41179 -0.308,-0.58615 -0.96808,-0.58615 -0.55156,0 -2.35952,0 -3.91852,-0.97284 -1.03796,-0.75032 -2.26928,-2.11054 -4.49448,-7.68234 -0.87855,-2.29914 -4.96598,-12.09269 -9.12192,-22.14337 -4.97616,-11.93802 -8.70064,-20.73838 -10.55271,-24.73084 -2.27947,-4.91577 -2.60239,-6.23257 -3.44633,-6.23257 -0.9586,0 -1.386,1.14788 -2.91039,5.10031 l -20.03757,50.05731 c -1.78288,4.56368 -3.02912,5.45715 -5.8798,6.27192 -1.22183,0.33242 -2.62207,0.33242 -3.099,0.33242 -0.50134,0 -0.66008,0.26323 -0.66008,0.58615 0,0.4966 0.84868,0.55155 2.14988,0.55155 3.8934,0 8.55613,-0.22388 9.53508,-0.22388 0.8392,0 4.47888,0.22388 7.60228,0.22388 1.48505,0 2.19534,-0.14925 2.19534,-0.55155 0,-0.41179 -0.24354,-0.58615 -0.80458,-0.58615 -0.90366,0 -2.3887,-0.061 -3.12884,-0.40162 -0.88872,-0.40704 -1.0373,-1.04814 -1.0373,-1.63904 0,-1.04272 1.0027,-3.59084 2.20484,-6.76852 l 15.69235,-41.82343"
       style="fill:#231f20;fill-opacity:1;fill-rule:nonzero;stroke:none"
       id="path4204"
       inkscape:connector-curvature="0" /><path
       d="m 301.67243,347.76308 c 0,12.72226 0,15.0119 -0.154,17.63396 -0.16419,2.79574 -0.83445,4.08744 -3.52096,4.65798 -0.68045,0.17435 -2.03592,0.23812 -2.77132,0.23812 -0.33241,0 -0.64041,0.17436 -0.64041,0.49185 0,0.4966 0.41721,0.64585 1.29644,0.64585 3.6797,0 8.81935,-0.22388 9.24608,-0.22388 0.54137,0 19.3673,0 21.2594,0.0746 1.55966,0.0943 2.87036,0.23879 3.53113,0.39755 0.38737,0.0943 0.72523,0.42197 1.12209,0.42197 0.28291,0 0.33311,-0.32767 0.33311,-0.72523 0,-0.5909 -0.39756,-1.56442 -0.6506,-3.84862 -0.0794,-0.8046 -0.25304,-4.42936 -0.41723,-5.4178 -0.0794,-0.39755 -0.25305,-0.86905 -0.60107,-0.86905 -0.44708,0 -0.62074,0.39755 -0.62074,1.04815 0,0.57122 -0.0692,1.96129 -0.47626,2.94499 -0.60106,1.31069 -1.40566,2.29371 -5.82077,2.76588 -1.38532,0.19335 -12.87151,0.25305 -13.75073,0.25305 -0.33243,0 -0.51628,-0.25305 -0.51628,-0.80935 l 0,-22.53074 c 0,-0.60582 0.1194,-0.82902 0.51628,-0.82902 1.05764,0 13.67678,0 15.54852,0.154 1.95654,0.17841 3.11392,0.32699 3.83913,1.16143 0.59091,0.64586 0.89347,1.04816 1.23132,1.04816 0.26323,0 0.39755,-0.154 0.39755,-0.64042 0,-0.50203 -0.39755,-1.87785 -0.62142,-4.59896 -0.17368,-1.64379 -0.34734,-4.64848 -0.34734,-5.21428 0,-0.64516 0,-1.559 -0.52646,-1.559 -0.44164,0 -0.61057,0.33244 -0.61057,0.7449 0,0.81411 0,1.6187 -0.32767,2.71162 -0.33785,1.10716 -1.078,2.51758 -4.25093,2.83508 -2.18992,0.25306 -12.87693,0.42198 -14.26769,0.42198 -0.39687,0 -0.58072,-0.23812 -0.58072,-0.5909 l 0,-7.17556 c 0,-2.7659 -0.0678,-12.23109 0,-13.99904 0.24356,-5.60708 4.05692,-6.66947 12.08728,-6.66947 2.10578,0 5.71086,0 7.81665,0.91858 2.13497,0.87446 3.10375,2.50809 3.70413,5.86486 0.14451,0.90907 0.29308,1.22658 0.72048,1.22658 0.50134,0 0.50134,-0.6506 0.50134,-1.22658 0,-0.64517 -0.66076,-6.20205 -1.07731,-7.93064 -0.57123,-2.11053 -1.232,-2.11053 -4.40017,-2.11053 -12.35051,0 -20.39036,0.47692 -22.74446,0.47692 -0.42672,0 -5.56637,-0.25304 -8.03986,-0.25304 -0.88396,0 -1.28084,0.16892 -1.28084,0.65533 0,0.26799 0.154,0.4966 0.6506,0.4966 0.74489,0 1.70281,0.16892 2.45313,0.31275 1.64855,0.35209 2.04609,2.15056 2.33375,4.48905 0.4274,3.45176 0.4274,9.90753 0.4274,17.74863 l 0,14.38166"
       style="fill:#231f20;fill-opacity:1;fill-rule:nonzero;stroke:none"
       id="path4206"
       inkscape:connector-curvature="0" /><path
       d="m 349.61852,340.65196 c 0,-0.4179 0.154,-0.74015 0.56172,-0.98844 1.24083,-0.7354 4.98565,-1.32087 8.58124,-1.32087 1.97079,0 4.24075,0.27272 6.14235,1.56916 2.86085,1.96129 4.95648,6.38115 4.95648,12.57369 0,10.21011 -5.3832,16.35788 -14.11369,16.35788 -2.47282,0 -4.69258,-0.2734 -5.47751,-0.50678 -0.40228,-0.14382 -0.65059,-0.47624 -0.65059,-0.98302 l 0,-26.70162 z m -7.08127,7.11112 c 0,12.72226 0,15.0119 -0.20352,17.63396 -0.13433,2.79574 -0.81477,4.08744 -3.47144,4.65798 -0.66009,0.17435 -2.07594,0.23812 -2.79573,0.23812 -0.33785,0 -0.64041,0.17436 -0.64041,0.49185 0,0.4966 0.37718,0.64585 1.31068,0.64585 3.66478,0 8.81461,-0.22388 9.23184,-0.22388 0.88396,0 7.08193,0.22388 9.6443,0.22388 5.1098,0 10.59679,-0.47692 14.94202,-3.57048 2.03117,-1.4803 5.61658,-5.49718 5.61658,-11.11918 0,-6.04804 -2.54744,-12.07709 -9.87226,-18.85036 6.71425,-8.59616 12.25145,-15.88637 16.9637,-20.94191 4.44496,-4.6634 7.91639,-5.5372 9.97198,-5.87436 1.54949,-0.24356 2.7062,-0.24356 3.18786,-0.24356 0.40772,0 0.74015,-0.22861 0.74015,-0.4966 0,-0.48641 -0.50609,-0.65533 -1.96129,-0.65533 l -5.8106,0 c -4.55892,0 -6.59484,0.43146 -8.72506,1.56441 -3.50061,1.87173 -6.39132,5.87912 -11.01945,12.0174 -3.43684,4.47412 -7.25561,9.95637 -8.92383,12.08727 -0.29308,0.28764 -0.5312,0.47624 -1.03797,0.47624 l -10.04593,0.16893 c -0.41722,0 -0.59632,-0.2578 -0.59632,-0.64517 l 0,-1.96672 c 0,-7.84109 0,-14.29687 0.4274,-17.74863 0.23337,-2.33848 0.71029,-4.13696 3.1831,-4.48904 1.13702,-0.14384 2.95993,-0.31276 3.6553,-0.31276 0.51627,0 0.67027,-0.22861 0.67027,-0.4966 0,-0.40229 -0.40774,-0.65533 -1.28152,-0.65533 -4.50874,0 -9.66874,0.25304 -10.05611,0.25304 -0.0896,0 -5.23938,-0.25304 -7.70201,-0.25304 -0.8643,0 -1.2917,0.16892 -1.2917,0.65533 0,0.26799 0.13907,0.4966 0.64111,0.4966 0.74964,0 1.72791,0.16892 2.45313,0.31276 1.63836,0.35208 2.05084,2.15056 2.36834,4.48904 0.4274,3.45176 0.4274,9.90754 0.4274,17.74863 l 0,14.38166"
       style="fill:#231f20;fill-opacity:1;fill-rule:nonzero;stroke:none"
       id="path4208"
       inkscape:connector-curvature="0" /><path
       d="m 393.21532,310.76111 c -1.13769,0.55631 -1.22181,0.87924 -1.22181,3.10917 0,4.06641 0.33784,7.33975 0.43688,8.67011 0.0475,0.86972 0.21371,1.2761 0.61057,1.2761 0.51154,0 0.61126,-0.2327 0.61126,-0.9084 0,-0.72047 0,-1.87242 0.23337,-3.01894 1.21164,-6.01886 6.60503,-8.32344 12.1022,-8.32344 7.81599,0 11.65988,5.64643 11.65988,10.86546 0,5.65117 -2.37849,8.89941 -9.3906,14.70933 l -3.69463,3.02436 c -8.62125,7.11654 -10.62257,12.15172 -10.62257,17.73844 0,8.72574 6.55075,14.68898 16.93927,14.68898 3.15801,0 5.54673,-0.34192 7.59273,-0.81884 1.5346,-0.3426 2.21031,-0.39755 2.85071,-0.39755 0.64049,0 0.8338,-0.16893 0.8338,-0.5909 0,-0.41722 -0.34731,-3.08881 -0.34731,-8.67553 0,-1.3012 -0.1486,-1.85275 -0.5462,-1.85275 -0.52169,0 -0.58069,0.40773 -0.6852,1.04815 -0.047,0.9837 -0.5712,3.21364 -1.04809,4.09218 -0.47631,0.90365 -2.7062,4.33981 -10.20468,4.33981 -5.6566,0 -10.02626,-3.53046 -10.02626,-9.48014 0,-4.66272 2.2693,-7.44828 9.95638,-13.7548 l 2.26453,-1.78355 c 9.61923,-7.57786 11.94823,-12.65306 11.94823,-19.17803 0,-3.35271 -1.3114,-9.5595 -6.93751,-13.54722 -3.55076,-2.47348 -7.9306,-3.46193 -12.3552,-3.46193 -3.83913,0 -7.60296,0.58682 -10.95975,2.22993"
       style="fill:#231f20;fill-opacity:1;fill-rule:nonzero;stroke:none"
       id="path4210"
       inkscape:connector-curvature="0" /><path
       d="m 439.29447,333.38142 c 0,-7.84109 0,-14.29687 0.4172,-17.74863 0.2632,-2.33848 0.7198,-4.13696 3.1729,-4.48904 1.1323,-0.14384 2.9504,-0.31276 3.7048,-0.31276 0.4769,0 0.6309,-0.22861 0.6309,-0.4966 0,-0.40229 -0.4077,-0.65533 -1.3113,-0.65533 -4.4993,0 -9.6192,0.25304 -10.0365,0.25304 -0.4165,0 -5.527,-0.25304 -8.01,-0.25304 -0.8541,0 -1.291,0.16892 -1.291,0.65533 0,0.26799 0.1839,0.4966 0.6608,0.4966 0.7347,0 1.7035,0.16892 2.4233,0.31276 1.6587,0.35208 2.0556,2.15056 2.3636,4.48904 0.447,3.45176 0.447,9.90754 0.447,17.74863 l 0,14.38166 c 0,12.72226 0,15.0119 -0.2035,17.63396 -0.1438,2.79574 -0.9484,4.18581 -2.7611,4.56368 -0.9233,0.26865 -1.962,0.33242 -2.4932,0.33242 -0.3521,0 -0.6899,0.17436 -0.6899,0.49185 0,0.4966 0.4369,0.64585 1.3012,0.64585 2.7258,0 7.8363,-0.22388 8.2528,-0.22388 0.4173,0 5.5372,0.22388 8.0006,0.22388 0.9036,0 1.291,-0.14925 1.291,-0.64585 0,-0.31749 -0.3026,-0.49185 -0.6404,-0.49185 -0.5713,0 -1.0482,-0.061 -2.0265,-0.23812 -2.2197,-0.41247 -2.85,-1.80254 -3.0094,-4.65798 -0.1933,-2.62206 -0.1933,-4.9117 -0.1933,-17.63396 l 0,-14.38166"
       style="fill:#231f20;fill-opacity:1;fill-rule:nonzero;stroke:none"
       id="path4212"
       inkscape:connector-curvature="0" /><path
       d="m 477.14977,333.38142 c 0,-7.84109 0,-14.29687 0.3976,-17.74863 0.25301,-2.33848 0.75981,-4.13696 3.2028,-4.48904 1.1329,-0.14384 2.93,-0.31276 3.6749,-0.31276 0.4573,0 0.64051,-0.22861 0.64051,-0.4966 0,-0.40229 -0.40711,-0.65533 -1.28091,-0.65533 -4.5196,0 -9.66869,0.25304 -10.06629,0.25304 -0.38671,0 -5.5568,-0.25304 -7.99031,-0.25304 -0.9233,0 -1.3209,0.16892 -1.3209,0.65533 0,0.26799 0.154,0.4966 0.631,0.4966 0.7449,0 1.7428,0.16892 2.4728,0.31276 1.6193,0.35208 2.0366,2.15056 2.3642,4.48904 0.4173,3.45176 0.4173,9.90754 0.4173,17.74863 l 0,34.54339 -12.0927,-0.16418 c -5.0752,-0.0678 -7.0121,-0.63567 -8.3126,-2.58678 -0.9193,-1.4206 -1.1621,-1.98165 -1.4254,-2.54812 -0.2333,-0.68995 -0.4572,-0.82902 -0.7849,-0.82902 -0.2632,0 -0.4566,0.26322 -0.4566,0.7449 0,0.78967 1.6588,7.82616 1.8521,8.50661 0.1438,0.47217 0.4769,1.54406 0.8148,1.54406 0.561,0 1.3656,-0.81884 3.5698,-0.96809 2.3446,-0.2483 5.4782,-0.41723 6.451,-0.41723 l 30.6208,0 c 5.2136,0 7.4388,0.79985 8.1036,0.79985 0.4274,0 0.4274,-0.48642 0.4274,-0.95859 0,-2.47824 -0.2483,-8.09957 -0.2483,-8.98829 0,-0.75507 -0.27269,-1.08749 -0.58609,-1.08749 -0.42131,0 -0.58071,0.26797 -0.65531,1.39074 l -0.069,0.90365 c -0.3284,2.46806 -2.23,4.32488 -10.0466,4.4938 l -10.30449,0.16418 0,-34.54339"
       style="fill:#231f20;fill-opacity:1;fill-rule:nonzero;stroke:none"
       id="path4214"
       inkscape:connector-curvature="0" /><path
       d="m 528.84547,330.8584 c 0,4.39476 -0.8385,6.21765 -1.8866,8.55682 -0.5658,1.31069 -11.5161,19.2825 -14.3763,23.53343 -2.0562,3.03454 -4.082,5.05078 -5.5372,6.04873 -1.2415,0.81409 -2.8059,1.29576 -3.5107,1.29576 -0.4376,0 -0.8447,0.17436 -0.8447,0.58615 0,0.32767 0.3474,0.55155 1.0773,0.55155 1.5794,0 7.6932,-0.22388 8.0901,-0.22388 0.5712,0 3.6845,0.22388 6.8282,0.22388 0.9383,0 1.08281,-0.22388 1.08281,-0.55155 0,-0.32292 -0.47221,-0.41179 -1.2022,-0.74489 -0.67971,-0.32293 -1.08751,-0.8141 -1.08751,-1.45452 0,-0.9837 0.4078,-1.95722 1.08751,-3.19329 1.291,-2.38869 13.53229,-23.45949 14.98749,-25.82307 1.5495,3.42123 11.9482,21.30892 13.5574,24.02528 1.0678,1.70824 1.4152,3.09356 1.4152,4.17156 0,1.13702 -0.3474,2.03116 -1.2666,2.27404 -0.74969,0.23337 -1.2714,0.42197 -1.2714,0.81952 0,0.32767 0.52171,0.47692 1.3263,0.47692 2.10581,0 4.73261,-0.22388 5.37301,-0.22388 0.51629,0 6.36629,0.22388 7.9456,0.22388 0.53189,0 1.038,-0.14925 1.038,-0.47692 0,-0.39755 -0.3874,-0.66078 -1.038,-0.66078 -0.924,0 -2.4728,-0.33242 -3.77471,-1.14719 -1.6282,-0.95317 -2.5318,-1.93619 -4.3445,-4.17088 -2.6574,-3.26316 -14.1334,-22.44662 -15.5689,-25.97708 -1.2408,-2.94973 -1.2408,-5.4429 -1.2408,-8.13959 l 0,-7.04192 c 0,-1.27609 0,-4.73193 0.253,-8.18369 0.12891,-2.33848 0.884,-4.13696 3.3473,-4.48904 1.13161,-0.14384 2.93961,-0.31276 3.6546,-0.31276 0.5163,0 0.66081,-0.22861 0.66081,-0.4966 0,-0.40229 -0.39761,-0.65533 -1.30121,-0.65533 -4.5094,0 -9.6294,0.25304 -10.0459,0.25304 -0.3976,0 -5.5379,-0.25304 -8.0304,-0.25304 -0.8738,0 -1.291,0.16892 -1.291,0.65533 0,0.26799 0.1737,0.4966 0.6608,0.4966 0.7245,0 1.7224,0.16892 2.4429,0.31276 1.6587,0.35208 2.4036,2.15056 2.5224,4.48904 0.2679,3.45176 0.2679,6.9076 0.2679,8.18369 l 0,7.04192"
       style="fill:#231f20;fill-opacity:1;fill-rule:nonzero;stroke:none"
       id="path4216"
       inkscape:connector-curvature="0" /><path
       d="m 95.116963,245.00671 c 0,-14.31653 0.10991,-26.69688 0.25374,-29.26399 0.12889,-3.36763 0.40229,-8.78001 1.48436,-10.27998 1.75301,-2.56236 7.032407,-5.3832 22.928287,-5.3832 12.5988,0 24.16436,4.57386 32.13977,12.5296 7.01683,6.88724 10.81119,19.83338 10.81119,32.26867 0,17.14754 -7.42456,28.20702 -12.96175,33.99726 -12.65781,13.37287 -28.07269,15.27512 -44.14699,15.27512 -2.6872,0 -7.712177,-0.41721 -8.770517,-0.95859 -1.2313,-0.53594 -1.62818,-1.2164 -1.62818,-2.69601 -0.10991,-4.6037 -0.10991,-18.36461 -0.10991,-28.74364 l 0,-16.74524 z m -11.36204,14.57568 c 0,21.04502 0,24.83463 -0.26797,29.15 -0.24831,4.60372 -1.3358,6.7536 -5.80517,7.71695 -1.06783,0.25848 -3.39682,0.39755 -4.61863,0.39755 -0.4966,0 -1.06783,0.26797 -1.06783,0.79917 0,0.81952 0.71572,1.08275 2.18518,1.08275 6.05346,0 14.57568,-0.39687 15.23577,-0.39687 1.62412,0 10.12056,0.39687 18.235037,0.39687 13.33352,0 38.06435,1.22114 54.12915,-15.39928 6.75901,-7.02224 13.09064,-18.21062 13.09064,-34.28016 0,-17.00373 -7.03175,-30.10929 -14.57027,-38.04943 -5.80041,-6.06364 -17.96705,-15.51867 -40.88992,-15.51867 -11.62052,0 -28.633747,1.62886 -29.994637,1.62886 -0.66009,0 -9.18231,-0.41722 -13.21412,-0.41722 -1.46536,0 -2.18991,0.26322 -2.18991,1.078 0,0.40704 0.27272,0.81409 1.1221,0.81409 1.20621,0 2.82558,0.26797 4.04673,0.5312 2.67701,0.52645 3.35745,3.52096 3.89408,7.43879 0.67977,5.64642 0.67977,16.31377 0.67977,29.27484 l 0,23.75256"
       style="fill:#231f20;fill-opacity:1;fill-rule:nonzero;stroke:none"
       id="path4218"
       inkscape:connector-curvature="0" /><path
       d="m 184.92177,259.58239 c 0,21.04502 0,24.83463 -0.30733,29.15 -0.2734,4.60372 -1.32085,6.7536 -5.80585,7.71695 -1.06239,0.25848 -3.36628,0.39755 -4.5786,0.39755 -0.5312,0 -1.06239,0.26797 -1.06239,0.79917 0,0.81952 0.66552,1.08275 2.16007,1.08275 6.04872,0 14.55532,-0.39687 15.23102,-0.39687 0.9681,0 32.0448,0 35.11936,0.13364 2.60714,0.13365 4.73735,0.40229 5.83978,0.67027 0.65534,0.1289 1.17161,0.68045 1.87716,0.68045 0.39688,0 0.53662,-0.55155 0.53662,-1.21707 0,-0.95317 -0.69062,-2.57187 -1.09766,-6.35129 -0.14451,-1.35547 -0.40704,-7.29023 -0.66078,-8.91842 -0.11397,-0.6662 -0.40705,-1.47486 -0.96334,-1.47486 -0.79443,0 -1.06715,0.66552 -1.06715,1.75233 0,0.94911 -0.14449,3.24349 -0.82495,4.85676 -0.90838,2.17499 -2.27946,3.78419 -9.54933,4.60846 -2.28964,0.2639 -21.23497,0.39212 -22.70441,0.39212 -0.5563,0 -0.83444,-0.39212 -0.83444,-1.34054 l 0,-37.24484 c 0,-0.94366 0.12889,-1.36564 0.83444,-1.36564 1.72792,0 22.54568,0 25.66433,0.25848 3.20754,0.29308 5.11455,0.55155 6.35129,1.9172 0.91858,1.07731 1.4647,1.74284 2.02642,1.74284 0.4118,0 0.66009,-0.25848 0.66009,-1.08276 0,-0.79441 -0.66009,-3.09424 -1.07732,-7.55818 -0.2734,-2.69669 -0.54612,-7.69726 -0.54612,-8.64093 0,-1.0875 0,-2.57254 -0.95385,-2.57254 -0.67027,0 -0.90364,0.53662 -0.90364,1.25167 0,1.32087 0,2.66209 -0.55155,4.4246 -0.55086,1.89752 -1.79778,4.17698 -7.02157,4.73802 -3.65528,0.40163 -21.2248,0.66011 -23.53411,0.66011 -0.67027,0 -0.94841,-0.39213 -0.94841,-0.94843 l 0,-11.87356 c 0,-4.57861 -0.13433,-20.23161 0,-23.0572 0.41721,-9.3709 6.65928,-11.08389 19.90392,-11.08389 3.4762,0 9.42519,0 12.94615,1.47487 3.51621,1.48979 5.11997,4.20615 6.0684,9.72843 0.26797,1.48911 0.53593,2.01624 1.2313,2.01624 0.77475,0 0.77475,-1.05833 0.77475,-2.01624 0,-1.06783 -1.03796,-10.25488 -1.73808,-13.09539 -0.93351,-3.51079 -2.021,-3.51079 -7.29972,-3.51079 -20.37068,0 -33.62007,0.82427 -37.55757,0.82427 -0.67571,0 -9.18231,-0.41722 -13.21004,-0.41722 -1.50404,0 -2.17975,0.26322 -2.17975,1.078 0,0.40704 0.2734,0.81409 1.09225,0.81409 1.21707,0 2.84594,0.26797 4.04266,0.5312 2.69669,0.52645 3.38189,3.52096 3.93276,7.43879 0.6852,5.64642 0.6852,16.31377 0.6852,29.27484 l 0,23.75256"
       style="fill:#231f20;fill-opacity:1;fill-rule:nonzero;stroke:none"
       id="path4220"
       inkscape:connector-curvature="0" /><path
       d="m 257.72827,215.0521 c 0.26798,-11.05405 1.59902,-14.58518 5.25432,-15.653 2.57185,-0.68045 5.55144,-0.8141 6.7434,-0.8141 0.67028,0 1.08276,-0.26322 1.08276,-0.81409 0,-0.81478 -0.8046,-1.078 -2.42329,-1.078 -7.70202,0 -13.09064,0.41722 -14.33688,0.41722 -1.21166,0 -6.83298,-0.41722 -12.92172,-0.41722 -1.38532,0 -2.16007,0.12415 -2.16007,1.078 0,0.55087 0.39212,0.81409 1.06783,0.81409 1.09224,0 3.4911,0.13365 5.51209,0.8141 3.40156,0.93892 4.10168,4.86693 4.10168,17.15772 l 0.11465,77.31523 c 0,5.2638 0.39687,6.74885 1.4647,6.74885 1.078,0 3.41648,-2.97484 4.71293,-4.32556 2.05559,-2.28896 22.17321,-24.02528 42.97061,-46.28807 13.33351,-14.31652 28.04759,-30.79379 32.36298,-35.22857 l -1.48505,68.55083 c -0.13365,8.79426 -1.06238,11.75417 -5.25362,12.84166 -2.44296,0.53663 -5.54737,0.6757 -6.61452,0.6757 -0.96335,0 -1.05764,0.38194 -1.05764,0.9335 0,0.81884 1.05764,0.94842 2.68652,0.94842 6.06296,0 12.54857,-0.39687 14.00377,-0.39687 1.5149,0 5.95918,0.39687 11.48619,0.39687 1.47488,0 2.45315,-0.12958 2.45315,-0.94842 0,-0.55156 -0.5407,-0.9335 -1.48436,-0.9335 -0.67095,0 -1.59903,0 -3.24824,-0.39755 -4.45446,-0.96335 -4.98566,-3.95311 -4.98566,-12.03232 l -0.30257,-79.07368 c 0,-8.92383 -0.2388,-9.5941 -1.18248,-9.5941 -1.07731,0 -2.70617,1.48504 -9.87224,8.63551 -1.47488,1.34665 -20.94123,21.18002 -35.21841,36.57523 -15.66319,16.89857 -30.92339,33.85751 -35.25843,38.72444 l 1.7876,-64.63232"
       style="fill:#231f20;fill-opacity:1;fill-rule:nonzero;stroke:none"
       id="path4222"
       inkscape:connector-curvature="0" /><path
       d="m 407.71571,213.16001 c 7.80646,18.09121 25.92756,65.17844 28.88206,74.90212 0.6411,2.03049 1.1967,3.91308 1.1967,5.12947 0,1.08275 -0.3725,2.43822 -1.7381,3.10848 -1.6085,0.5468 -3.6349,0.5468 -5.12,0.5468 -0.8141,0 -1.4647,0.12891 -1.4647,0.79918 0,0.81952 0.7748,1.08274 2.9498,1.08274 5.373,0 11.5608,-0.39686 13.2297,-0.39686 0.7944,0 6.6043,0.39686 10.5228,0.39686 1.4898,0 2.289,-0.26322 2.289,-0.94841 0,-0.66553 -0.5658,-0.93351 -1.6289,-0.93351 -0.9531,0 -3.8934,0 -6.4503,-1.62886 -1.7781,-1.21164 -3.7944,-3.50603 -7.4395,-12.69784 -1.4749,-3.77468 -8.2481,-19.94396 -15.1211,-36.56437 -8.2285,-19.70041 -14.29754,-34.28559 -17.42096,-40.89536 -3.76382,-8.10432 -4.31538,-10.24945 -5.68577,-10.24945 -1.57935,0 -2.24012,1.88191 -4.82691,8.35261 l -33.07394,82.72827 c -2.95924,7.57244 -4.99515,9.05748 -9.73792,10.4082 -2.0115,0.5468 -4.31064,0.5468 -5.09488,0.5468 -0.8046,0 -1.10243,0.38195 -1.10243,0.93351 0,0.81884 1.37515,0.94841 3.49111,0.94841 6.48562,0 14.20732,-0.39686 15.826,-0.39686 1.34122,0 7.41912,0.39686 12.54452,0.39686 2.43278,0 3.65461,-0.26322 3.65461,-0.94841 0,-0.66553 -0.42673,-0.93351 -1.36021,-0.93351 -1.49998,0 -3.90834,-0.13906 -5.13016,-0.67569 -1.4898,-0.6852 -1.74284,-1.76795 -1.74284,-2.70687 0,-1.75233 1.60852,-5.93881 3.62476,-11.2128 l 25.92756,-69.09151"
       style="fill:#231f20;fill-opacity:1;fill-rule:nonzero;stroke:none"
       id="path4224"
       inkscape:connector-curvature="0" /><path
       d="m 475.28757,259.58239 c 0,21.04502 0,24.83463 -0.2429,29.15 -0.308,4.60372 -1.3656,6.7536 -5.8255,7.71695 -1.0773,0.25848 -3.3669,0.39755 -4.5786,0.39755 -0.5563,0 -1.0773,0.26797 -1.0773,0.79917 0,0.81952 0.6804,1.08275 2.1648,1.08275 6.0487,0 14.5655,-0.39687 15.2555,-0.39687 0.9287,0 32.0061,0 35.1098,0.13364 2.5719,0.13365 4.7224,0.40229 5.8201,0.67027 0.6601,0.1289 1.1913,0.68045 1.8718,0.68045 0.3975,0 0.5318,-0.55155 0.5318,-1.21707 0,-0.95317 -0.6757,-2.57187 -1.0725,-6.35129 -0.1398,-1.35547 -0.3922,-7.29023 -0.671,-8.91842 -0.1438,-0.6662 -0.4165,-1.47486 -0.9633,-1.47486 -0.7945,0 -1.0726,0.66552 -1.0726,1.76252 0,0.93892 -0.1289,3.2333 -0.7897,4.84657 -0.9484,2.17499 -2.2944,3.78419 -9.5893,4.60846 -2.2788,0.2639 -21.2242,0.39212 -22.7044,0.39212 -0.5557,0 -0.8094,-0.39212 -0.8094,-1.34054 l 0,-37.24484 c 0,-0.94366 0.1296,-1.36564 0.8094,-1.36564 1.7231,0 22.5951,0 25.6894,0.25848 3.1933,0.29308 5.105,0.55155 6.3065,1.9172 0.9586,1.07731 1.5244,1.74284 2.0264,1.74284 0.4369,0 0.6805,-0.25848 0.6805,-1.08276 0,-0.79441 -0.6805,-3.09424 -1.0882,-7.55818 -0.2531,-2.69669 -0.5312,-7.69726 -0.5312,-8.64093 0,-1.0875 0,-2.57254 -0.9532,-2.57254 -0.6506,0 -0.9192,0.55629 -0.9192,1.25167 0,1.32087 0,2.66209 -0.5461,4.4246 -0.5211,1.89752 -1.7822,4.17698 -7.0216,4.73802 -3.6254,0.40163 -21.2099,0.66011 -23.4988,0.66011 -0.7002,0 -0.9539,-0.39213 -0.9539,-0.94843 l 0,-11.87356 c 0,-4.57861 -0.1343,-20.23161 0,-23.0572 0.363,-9.3709 6.6545,-11.08389 19.8497,-11.08389 3.5548,0 9.4645,0 12.9556,1.47487 3.521,1.48979 5.1397,4.20615 6.0982,9.72843 0.2538,1.48911 0.5265,2.01624 1.2164,2.01624 0.8148,0 0.8148,-1.05833 0.8148,-2.01624 0,-1.06783 -1.0977,-10.25488 -1.7774,-13.09539 -0.9389,-3.51079 -2.0169,-3.51079 -7.3052,-3.51079 -20.3455,0 -33.6044,0.82427 -37.5134,0.82427 -0.69,0 -9.2068,-0.41722 -13.2393,-0.41722 -1.4748,0 -2.1749,0.26322 -2.1749,1.078 0,0.40704 0.2829,0.81409 1.1078,0.81409 1.1913,0 2.8303,0.26797 4.0176,0.5312 2.7007,0.52645 3.3913,3.52096 3.928,7.43879 0.6648,5.6566 0.6648,16.31377 0.6648,29.27484 l 0,23.75256"
       style="fill:#231f20;fill-opacity:1;fill-rule:nonzero;stroke:none"
       id="path4226"
       inkscape:connector-curvature="0" /><path
       d="m 552.35997,247.85265 c 0,-0.68045 0.2727,-1.22657 0.9579,-1.62955 2.0169,-1.21639 8.2244,-2.15464 14.1734,-2.15464 3.2577,0 7.012,0.39755 10.1158,2.55762 4.7326,3.25231 8.20331,10.54727 8.20331,20.78722 0,16.87957 -8.86411,26.98995 -23.31501,26.98995 -4.0474,0 -7.7121,-0.39687 -9.0479,-0.80934 -0.6805,-0.2578 -1.0875,-0.79444 -1.0875,-1.6187 l 0,-44.12256 z m -10.7861,11.72974 c 0,21.04502 0,24.83463 -0.2836,29.15 -0.2781,4.60372 -1.3256,6.7536 -5.8099,7.71695 -1.05219,0.25848 -3.352,0.39755 -4.5732,0.39755 -0.5271,0 -1.078,0.26797 -1.078,0.79917 0,0.81952 0.675,1.08275 2.1404,1.08275 6.07321,0 14.6001,-0.39687 15.2806,-0.39687 1.4694,0 11.7243,0.39687 15.9257,0.39687 8.4964,0 17.5546,-0.80935 24.7003,-5.92934 3.36761,-2.44837 9.2915,-9.03304 9.2915,-18.35917 0,-9.97673 -4.1864,-19.97315 -16.2934,-31.18661 11.0398,-14.16796 20.21191,-26.16568 28.0232,-34.53321 7.2902,-7.70201 13.13,-9.17756 16.4671,-9.72843 2.5725,-0.40705 4.4599,-0.40705 5.2936,-0.40705 0.6506,0 1.2171,-0.40705 1.2171,-0.81409 0,-0.81478 -0.8249,-1.078 -3.253,-1.078 l -9.5792,0 c -7.5683,0 -10.9156,0.68045 -14.4264,2.56779 -5.8303,3.10306 -10.5228,9.72775 -18.2452,19.85848 -5.641,7.38926 -11.9977,16.44742 -14.6992,19.94328 -0.5461,0.54612 -0.9233,0.81477 -1.7577,0.81477 l -16.5967,0.27273 c -0.6852,0 -0.9579,-0.39688 -0.9579,-1.0875 l 0,-3.23263 c 0,-12.96107 0,-23.61824 0.6899,-29.27484 0.3976,-3.91783 1.192,-6.91234 5.2543,-7.43879 1.8921,-0.26323 4.8717,-0.5312 6.0732,-0.5312 0.8147,0 1.0881,-0.40705 1.0881,-0.81409 0,-0.66078 -0.6811,-1.078 -2.1655,-1.078 -7.4387,0 -15.946,0.41722 -16.5959,0.41722 -0.1344,0 -8.6613,-0.41722 -12.6938,-0.41722 -1.4749,0 -2.1648,0.26322 -2.1648,1.078 0,0.40704 0.2829,0.81409 1.0976,0.81409 1.2015,0 2.8107,0.26797 4.0318,0.5312 2.6771,0.52645 3.3772,3.52096 3.8989,7.43879 0.7001,5.6566 0.7001,16.31377 0.7001,29.27484 l 0,23.75256"
       style="fill:#231f20;fill-opacity:1;fill-rule:nonzero;stroke:none"
       id="path4228"
       inkscape:connector-curvature="0" /><path
       d="m 581.53507,340.81071 c 0,1.65329 -0.4172,2.91989 -1.2218,3.79368 -0.7843,0.86905 -1.8426,1.32087 -3.1038,1.32087 -2.6119,0 -5.0155,-1.87717 -7.2054,-5.59147 -2.1953,-3.73466 -3.2828,-7.43879 -3.2828,-11.1436 0,-1.67839 0.4471,-2.96941 1.28151,-3.88866 0.85409,-0.90364 1.9416,-1.37514 3.22249,-1.37514 2.4836,0 4.837,1.85681 7.0324,5.5718 2.1899,3.70413 3.2774,7.49374 3.2774,11.31252 z m 4.4049,-1.81272 c 0,-2.67158 -0.7001,-5.3235 -2.1058,-7.92114 -1.4253,-2.59696 -3.3466,-4.65255 -5.8994,-6.20204 -2.5027,-1.49998 -4.966,-2.26454 -7.3201,-2.26454 -2.4477,0 -4.4151,0.76456 -5.949,2.31406 -1.5393,1.54407 -2.3046,3.55556 -2.3046,6.0338 0,2.60714 0.7252,5.2387 2.2401,7.82616 1.519,2.64242 3.4911,4.69801 6.0135,6.2224 2.5183,1.55967 4.9164,2.30389 7.2651,2.30389 2.3541,0 4.2855,-0.78425 5.7706,-2.33374 1.5393,-1.50947 2.2896,-3.52571 2.2896,-5.97885"
       style="fill:#231f20;fill-opacity:1;fill-rule:nonzero;stroke:none"
       id="path4230"
       inkscape:connector-curvature="0" /><path
       d="m 602.51158,346.66541 -0.48171,-1.7632 -3.8439,0 -2.945,-11.59067 c -1.291,-5.1444 -2.5922,-9.10225 -3.8934,-11.90275 -1.8622,-3.9531 -3.8784,-6.66472 -6.0134,-8.1891 -1.6092,-1.16212 -3.2876,-1.75302 -4.9063,-1.75302 -1.0481,0 -1.9572,0.35278 -2.7068,0.97284 -0.5312,0.45726 -0.8141,1.0434 -0.8141,1.73878 0,0.56578 0.2035,1.04272 0.6702,1.4545 0.4668,0.44234 0.998,0.64111 1.6581,0.64111 0.4871,0 0.9145,-0.154 1.2123,-0.44232 0.3127,-0.31275 0.4966,-0.68045 0.4966,-1.04272 0,-0.3928 -0.194,-0.78493 -0.576,-1.08751 -0.2686,-0.26796 -0.3779,-0.4274 -0.3779,-0.57121 0,-0.16893 0.027,-0.27815 0.169,-0.36771 0.154,-0.13906 0.4118,-0.16349 0.7354,-0.16349 0.7544,0 1.5495,0.19877 2.4131,0.70487 0.8344,0.4715 1.5847,1.18722 2.2299,2.12546 0.6805,0.94368 1.3012,2.33442 1.8718,4.1166 0.2537,0.7354 0.9043,3.1933 1.9816,7.34518 l 4.6336,18.01116 -4.6336,0 0.3677,1.7632 c 1.4945,0 2.5223,0.099 3.1037,0.29782 0.5909,0.20895 1.1072,0.59565 1.5991,1.16212 0.4965,0.58615 1.1275,1.65397 1.9117,3.23806 1.0482,2.12004 2.0461,3.78893 2.9891,4.95105 1.3161,1.56917 2.717,2.76114 4.1519,3.54538 1.4348,0.79985 2.7815,1.17162 4.0521,1.17162 1.3657,0 2.4437,-0.32224 3.2774,-1.00744 0.7951,-0.6852 1.2124,-1.42534 1.2124,-2.20484 0,-0.64585 -0.2388,-1.1723 -0.6106,-1.57934 -0.4179,-0.42198 -0.9389,-0.6506 -1.5895,-0.6506 -0.5312,0 -0.9783,0.15875 -1.3311,0.50609 -0.3575,0.30326 -0.5115,0.66553 -0.5115,1.1126 0,0.29782 0.094,0.64585 0.3379,1.06782 0.2537,0.39755 0.367,0.69537 0.367,0.8392 0,0.22387 -0.094,0.42672 -0.2476,0.55087 -0.2137,0.15942 -0.5767,0.25847 -1.0285,0.25847 -1.1072,0 -2.135,-0.35752 -2.9796,-1.07257 -1.2015,-0.92332 -2.2598,-2.38326 -3.2075,-4.3995 -0.4675,-1.06782 -1.3413,-3.64036 -2.6323,-7.78681 l 3.8887,0"
       style="fill:#231f20;fill-opacity:1;fill-rule:nonzero;stroke:none"
       id="path4232"
       inkscape:connector-curvature="0" /><path
       d="m 11.514883,393.74314 c -28.67852,7.31939 -57.88348,11.03369 -86.75058,11.03369 -28.186673,0 -56.681333,-3.53588 -84.680083,-10.51267 l -7.40894,-1.84732 0,-78.56691 c 0.24355,-25.68875 5.6661,-49.6747 16.1245,-71.29161 14.34638,-29.57199 38.64032,-54.09862 72.200013,-72.89538 l 4.77737,-2.67159 4.77738,2.67159 c 33.56986,18.79676 57.84887,43.32339 72.1857702,72.91573 10.4780598,21.60675 15.9006098,45.58726 16.1339798,71.27126 l 0,78.00586 -7.35941,1.88735"
       style="fill:#960a2b;fill-opacity:1;fill-rule:nonzero;stroke:none"
       id="path4234"
       inkscape:connector-curvature="0" /><path
       d="m -130.16945,372.78631 6.08875,2.59221 0.52102,0 -5.4775,-18.44331 c -0.36702,-1.23675 -0.53594,-2.00132 -0.52644,-2.28964 0.0136,-0.30257 0.15942,-0.54612 0.4274,-0.69537 0.28289,-0.15875 0.88872,-0.2578 1.89209,-0.27747 l -0.18385,-0.59633 -8.22371,0 0.19877,0.59633 c 1.01762,0.0204 1.71299,0.10854 2.07594,0.26797 0.32768,0.14857 0.61057,0.3677 0.80935,0.62549 0.18385,0.2734 0.49117,1.04815 0.86362,2.36902 l 3.50128,11.79419 c 0.48642,1.57867 0.72522,2.60714 0.75507,3.05354 0.0204,0.34802 -0.0339,0.60107 -0.1791,0.76525 -0.14382,0.15874 -0.3677,0.23812 -0.66077,0.23812 -0.39687,0 -0.99794,-0.17368 -1.79779,-0.4966 l -0.0841,0.4966"
       style="fill:#a3955f;fill-opacity:1;fill-rule:nonzero;stroke:none"
       id="path4236"
       inkscape:connector-curvature="0" /><path
       d="m -115.37531,365.81427 c 1.63836,1.15669 2.72111,2.06576 3.25231,2.73603 0.55629,0.6757 0.93892,1.4301 1.20146,2.28964 0.34803,1.1221 0.26865,2.02099 -0.14857,2.64649 -0.45657,0.63092 -1.23674,0.9586 -2.32424,0.9586 -1.09224,0 -2.09087,-0.32768 -2.95448,-0.94842 -0.8643,-0.63093 -1.42535,-1.37582 -1.68857,-2.21977 -0.16893,-0.56105 -0.20353,-1.12209 -0.0699,-1.68382 0.11465,-0.56104 0.34803,-1.08749 0.72522,-1.59359 l 2.00675,-2.18516 z m -2.46874,-2.34392 c -1.11192,-0.75032 -2.00607,-1.56442 -2.69601,-2.45856 -0.70555,-0.88872 -1.21708,-1.84189 -1.52507,-2.88529 -0.4118,-1.37514 -0.35753,-2.47756 0.17435,-3.31676 0.50609,-0.82969 1.35072,-1.23674 2.50266,-1.23674 1.17705,0 2.19466,0.31275 3.08881,0.97352 0.88872,0.65535 1.47487,1.44502 1.75302,2.38869 0.23337,0.76932 0.23337,1.45451 0,2.07051 -0.42198,1.1377 -1.52982,2.63699 -3.29776,4.46463 z m -0.5658,0.60583 c -1.31069,1.41991 -2.09087,2.56711 -2.33916,3.41648 -0.2483,0.8643 -0.22863,1.76794 0.0543,2.68176 0.42672,1.4206 1.30594,2.63699 2.72111,3.66953 1.40567,1.02305 3.01418,1.53457 4.8269,1.53457 1.76794,0 3.03929,-0.47692 3.83371,-1.44027 0.78492,-0.95317 1.00337,-2.04609 0.63567,-3.26248 -0.2483,-0.81952 -0.77475,-1.64854 -1.61869,-2.49317 -0.8392,-0.85887 -2.33917,-1.85681 -4.5189,-3.00401 1.46944,-1.45994 2.37308,-2.60713 2.74621,-3.4565 0.4966,-1.07257 0.55087,-2.24419 0.1886,-3.46126 -0.44708,-1.5244 -1.4206,-2.84526 -2.93481,-3.93276 -1.4803,-1.09767 -3.17836,-1.63904 -5.09013,-1.63904 -2.07594,0 -3.49654,0.65534 -4.25636,1.95654 -0.62549,1.04815 -0.74964,2.17499 -0.38737,3.41716 0.28832,0.94774 0.90432,1.92126 1.83782,2.86968 0.94366,0.94842 2.36358,2.00675 4.30044,3.14377"
       style="fill:#a3955f;fill-opacity:1;fill-rule:nonzero;stroke:none"
       id="path4238"
       inkscape:connector-curvature="0" /><path
       d="m -102.82131,364.09585 c -0.61125,-1.44977 -1.05288,-2.62206 -1.33104,-3.50603 -0.2985,-1.0373 -0.44707,-2.16482 -0.41722,-3.37171 0.0271,-1.19672 0.30799,-2.15532 0.84394,-2.86562 0.39212,-0.50677 0.9932,-0.76932 1.7632,-0.76932 0.93824,0 1.90158,0.4464 2.915143,1.3358 0.99794,0.87379 1.72792,2.14039 2.21434,3.75908 0.56646,1.84732 0.67094,3.43141 0.32766,4.78213 -0.3426,1.34054 -1.17636,2.00606 -2.52234,2.00606 -0.40704,0 -0.85954,-0.0841 -1.390743,-0.25305 -0.51152,-0.18385 -1.31068,-0.54612 -2.40294,-1.11734 z m 13.387793,11.28267 -0.19335,-0.59564 c -1.45044,-0.14451 -2.68176,-0.41723 -3.72448,-0.84463 -1.0183,-0.42197 -2.09087,-1.07257 -3.23331,-1.93686 -1.12685,-0.86905 -2.14514,-1.84664 -3.03386,-2.91446 -0.879223,-1.06782 -1.753023,-2.33442 -2.577293,-3.80861 1.85749,1.05697 3.575233,1.59834 5.144403,1.59834 1.48029,0 2.59221,-0.61057 3.33711,-1.81747 0.7354,-1.20214 0.81952,-2.74621 0.26322,-4.62812 -0.53119,-1.83239 -1.57391,-3.49111 -3.13358,-4.99583 -1.88667,-1.83239 -3.902913,-2.74621 -6.088073,-2.74621 -1.5149,0 -2.63156,0.4966 -3.38189,1.48504 -1.47962,1.92126 -1.74827,4.42461 -0.83445,7.48357 0.5814,1.94161 1.5149,3.8086 2.82559,5.5623 1.3012,1.76726 2.90021,3.33643 4.752963,4.69732 1.85681,1.36565 3.54063,2.28422 4.9904,2.74621 1.48979,0.48168 2.79573,0.71505 3.94835,0.71505 l 0.93825,0"
       style="fill:#a3955f;fill-opacity:1;fill-rule:nonzero;stroke:none"
       id="path4240"
       inkscape:connector-curvature="0" /><path
       d="m -81.527297,361.13119 3.20753,10.84577 -10.88513,-10.84577 7.6776,0 z m 5.57654,0 -0.67501,-2.29439 -2.93549,0 -1.71775,-5.7604 -2.64716,0 1.72316,5.7604 -9.27118,0 0.6255,2.07119 14.43593,14.47053 1.7632,0 -4.23125,-14.24733 2.93005,0"
       style="fill:#a3955f;fill-opacity:1;fill-rule:nonzero;stroke:none"
       id="path4242"
       inkscape:connector-curvature="0" /><path
       d="m -118.02248,302.17989 c 0,0 11.41699,5.89946 21.373373,11.22365 9.9618,5.31332 23.78716,6.28141 34.81679,0.3772 l -4.44496,7.06159 20.40053,-9.28136 0.77,5.50734 -28.5252,14.21749 -51.546423,-27.94379 7.15589,-1.16212"
       style="fill:#ffffff;fill-opacity:1;fill-rule:nonzero;stroke:none"
       id="path4244"
       inkscape:connector-curvature="0" /><path
       d="m 4.7565532,313.52294 c -0.0678,-6.94831 -0.57123,-13.52823 -1.386,-19.83475 l -23.5334402,11.34714 0.72522,-4.15122 22.4710402,-9.63888 c -2.10578004,-14.53022 -5.99445,-27.39224 -11.0147,-38.74004 -3.9626002,-0.55086 -7.8261602,-1.16686 -11.5859202,-1.87716 l -0.11872,-0.0271 -0.12958,23.07212 c 0,0.005 0,0.0204 0,0.0271 -0.0204,3.02979 -1.36089,5.80516 -3.60507,8.03036 l -0.0543,12.28062 -0.007,2.40361 0.68995,0.93349 -0.007,0.59089 c -3.16818,2.46807 -8.31801,4.07251 -14.13336,4.07251 -0.0271,0 -0.0407,0 -0.0678,0 l 0,-0.0136 -0.0136,0 0.0136,-0.36294 0,-0.28765 c -0.005,0 -0.0136,0 -0.0204,0 l 0,0.0889 0.005,0 0,0.19876 0.005,0.36296 -0.005,0 0,0.0136 c -5.86487,-0.0204 -11.0493,-1.66889 -14.19306,-4.18173 l 0,-0.48167 0.69062,-0.94843 -0.0136,-2.37852 0.005,-0.005 -0.0611,-12.30029 c -2.23401,-2.21976 -3.57049,-5.00057 -3.58541,-8.01544 0,-0.0407 0.005,-0.0746 0.005,-0.11396 l -0.18385,-31.56381 -0.0611,-0.0204 c -2.22993,-0.69062 -4.41511,-1.36564 -6.51547,-2.05627 l 0,29.93493 -6.12809,0 0,6.6939 -25.8129,0 0,-6.6939 -5.45783,0 0,-44.90748 c -1.976213,-0.94842 -3.913083,-1.91177 -5.790243,-2.86969 l 0,6.7882 -8.61584,24.26408 -9.02356,-24.26408 0,-6.92252 c -6.35129,7.83634 -12.16664,16.73507 -16.99354,26.87121 -5.74073,12.04726 -10.19993,25.88754 -12.54927,41.69928 5.81535,3.24756 15.20593,7.70678 28.56997,7.70678 19.43651,0 42.026943,-9.30103 42.026943,-9.30103 -9.99164,5.06976 -30.829073,12.87625 -51.279123,18.63191 l -19.99858,-12.31026 c -0.68519,5.82009 -1.08274,11.89799 -1.14719,18.25539 l 0,68.28625 c 52.48635,13.30414 105.418783,13.13997 157.8844632,-0.48187 l 0,-67.80458 z m -33.1329802,-29.71716 -0.0407,13.85521 c 1.06782,-0.34736 1.99114,-0.73948 2.78624,-1.1818 l 0.0543,-13.56688 c -0.74965,0.34259 -1.70282,0.64042 -2.80049,0.89347 z m -4.96598,0.72997 -0.0136,14.17812 c 1.0027,-0.11464 1.90702,-0.28764 2.791,-0.47692 l 0.0271,-14.0187 c -0.87922,0.13365 -1.81816,0.24354 -2.80592,0.3175 z m -3.64984,0.15941 c -0.52171,0 -1.01831,-0.0271 -1.52508,-0.0475 l 0.007,14.18289 c 0.51152,0.0271 0.97826,0.0895 1.51488,0.0895 0.5312,0 0.98777,-0.0678 1.49454,-0.0895 l 0.007,-14.18289 c -0.50134,0.0204 -0.98777,0.0475 -1.50404,0.0475 z m -3.67496,-0.16417 c -0.98846,-0.0746 -1.92195,-0.18384 -2.80592,-0.31817 l 0.0271,14.01464 c 0.88396,0.19334 1.79236,0.37177 2.79574,0.48166 l -0.0204,-14.17813 z m -4.95648,-0.72521 c -1.10243,-0.2578 -2.05084,-0.55088 -2.81067,-0.89891 l 0.0543,13.54721 c 0.79442,0.45251 1.72317,0.84938 2.79574,1.1974 l -0.0407,-13.8457 z m -28.46008,-80.47868 -3.75908,-0.99794 0,50.70247 c 0,1.12753 0.86905,2.01151 1.90228,2.01151 1.02778,0 1.8568,-0.88398 1.8568,-2.01151 l 0,-49.70453 z m -8.92858,-2.38869 -3.77401,-0.99794 0,53.09116 c 0,1.12753 0.84395,2.01151 1.89684,2.01151 1.00812,0 1.87717,-0.88398 1.87717,-2.01151 l 0,-52.09322 z m -74.529673,183.82594 0,-70.82012 c 0.2388,-26.82103 6.3167,-48.88977 15.15166,-67.10988 16.95827,-34.98029 45.364053,-55.86249 68.167523,-68.62953 22.80415,12.76704 51.21468,33.64924 68.1729502,68.62953 8.82954,18.22011 14.91287,40.28885 15.16116,67.10988 l 0,70.31335 C -46.274287,398.39094 -102.15103,398.56936 -157.54202,384.76435"
       style="fill:#ffffff;fill-opacity:1;fill-rule:nonzero;stroke:none"
       id="path4246"
       inkscape:connector-curvature="0" /><path
       d="m -37.017367,301.43974 -0.005,0 0,-0.0889 c 0,0 0.007,0 0.0136,0 l 0.005,0 0,0.28766 -0.0136,0.36294 -0.005,-0.36294 0,-0.19878"
       style="fill:#a3955f;fill-opacity:1;fill-rule:nonzero;stroke:none"
       id="path4248"
       inkscape:connector-curvature="0" /><path
       d="m -22.804627,297.93912 -14.17814,79.89797 -14.22766,-79.9027 0.0543,-0.0699 c 3.14851,2.49316 8.29833,4.12677 14.13811,4.14712 l 0,-0.0136 0.0136,0 0,0.0136 c 0.0271,0 0.0407,0 0.0678,0 5.81535,0 10.96518,-1.60444 14.13336,-4.07251"
       style="fill:#a3955f;fill-opacity:1;fill-rule:nonzero;stroke:none"
       id="path4250"
       inkscape:connector-curvature="0" /></g></svg>